<svg width="25" height="25" viewBox="0 0 25 25" fill="none" xmlns="http://www.w3.org/2000/svg">
<g id="Frame">
<path id="Vector" d="M6.95298 20.024C6.28631 20.024 5.71965 19.7907 5.25298 19.324C4.78631 18.8574 4.55298 18.2907 4.55298 17.624V16.449C4.55298 15.8157 4.78231 15.228 5.24098 14.686C5.69898 14.1447 6.30298 13.678 7.05298 13.286C7.80298 12.8947 8.64898 12.5864 9.59098 12.361C10.5323 12.1364 11.4863 12.024 12.453 12.024C13.4196 12.024 14.3863 12.1364 15.353 12.361C16.3196 12.5864 17.1863 12.899 17.953 13.299C18.7196 13.699 19.3446 14.17 19.828 14.712C20.3113 15.2534 20.553 15.8407 20.553 16.474V17.624C20.553 18.2907 20.3196 18.8574 19.853 19.324C19.3863 19.7907 18.8196 20.024 18.153 20.024H6.95298ZM6.95298 18.024H18.153C18.253 18.024 18.3446 17.9824 18.428 17.899C18.5113 17.8157 18.553 17.724 18.553 17.624V16.449C18.553 16.0324 17.957 15.524 16.765 14.924C15.5736 14.324 14.1363 14.024 12.453 14.024C10.7363 14.024 9.32398 14.324 8.21598 14.924C7.10731 15.524 6.55298 16.0407 6.55298 16.474V17.624C6.55298 17.724 6.59465 17.8157 6.67798 17.899C6.76131 17.9824 6.85298 18.024 6.95298 18.024ZM12.453 11.024C11.4863 11.024 10.6613 10.6824 9.97798 9.99905C9.29465 9.31571 8.95298 8.49071 8.95298 7.52405C8.95298 6.55738 9.29465 5.73238 9.97798 5.04905C10.6613 4.36571 11.4863 4.02405 12.453 4.02405C13.4363 4.02405 14.2653 4.36571 14.94 5.04905C15.6153 5.73238 15.953 6.55738 15.953 7.52405C15.953 8.49071 15.6113 9.31571 14.928 9.99905C14.2446 10.6824 13.4196 11.024 12.453 11.024ZM12.453 9.02405C12.8696 9.02405 13.224 8.87805 13.516 8.58605C13.8073 8.29471 13.953 7.94071 13.953 7.52405C13.953 7.10738 13.8073 6.75338 13.516 6.46205C13.224 6.17005 12.8696 6.02405 12.453 6.02405C12.0363 6.02405 11.6823 6.17005 11.391 6.46205C11.099 6.75338 10.953 7.10738 10.953 7.52405C10.953 7.94071 11.099 8.29471 11.391 8.58605C11.6823 8.87805 12.0363 9.02405 12.453 9.02405Z" fill="white"/>
</g>
</svg>
