<svg width="16" height="17" viewBox="0 0 16 17" fill="none" xmlns="http://www.w3.org/2000/svg">
<path d="M2.4 16.8623C1.73333 16.8623 1.16667 16.629 0.7 16.1623C0.233333 15.6956 0 15.129 0 14.4623V13.2873C0 12.654 0.229334 12.0663 0.688 11.5243C1.146 10.983 1.75 10.5163 2.5 10.1243C3.25 9.73297 4.096 9.42464 5.038 9.1993C5.97933 8.97464 6.93333 8.8623 7.9 8.8623C8.86667 8.8623 9.83333 8.97464 10.8 9.1993C11.7667 9.42464 12.6333 9.7373 13.4 10.1373C14.1667 10.5373 14.7917 11.0083 15.275 11.5503C15.7583 12.0916 16 12.679 16 13.3123V14.4623C16 15.129 15.7667 15.6956 15.3 16.1623C14.8333 16.629 14.2667 16.8623 13.6 16.8623H2.4ZM2.4 14.8623H13.6C13.7 14.8623 13.7917 14.8206 13.875 14.7373C13.9583 14.654 14 14.5623 14 14.4623V13.2873C14 12.8706 13.404 12.3623 12.212 11.7623C11.0207 11.1623 9.58333 10.8623 7.9 10.8623C6.18333 10.8623 4.771 11.1623 3.663 11.7623C2.55433 12.3623 2 12.879 2 13.3123V14.4623C2 14.5623 2.04167 14.654 2.125 14.7373C2.20833 14.8206 2.3 14.8623 2.4 14.8623ZM7.9 7.8623C6.93333 7.8623 6.10833 7.52064 5.425 6.83731C4.74167 6.15397 4.4 5.32897 4.4 4.3623C4.4 3.39564 4.74167 2.57064 5.425 1.8873C6.10833 1.20397 6.93333 0.862305 7.9 0.862305C8.88333 0.862305 9.71233 1.20397 10.387 1.8873C11.0623 2.57064 11.4 3.39564 11.4 4.3623C11.4 5.32897 11.0583 6.15397 10.375 6.83731C9.69167 7.52064 8.86667 7.8623 7.9 7.8623ZM7.9 5.8623C8.31667 5.8623 8.671 5.7163 8.963 5.4243C9.25433 5.13297 9.4 4.77897 9.4 4.3623C9.4 3.94564 9.25433 3.59164 8.963 3.3003C8.671 3.0083 8.31667 2.8623 7.9 2.8623C7.48333 2.8623 7.12933 3.0083 6.838 3.3003C6.546 3.59164 6.4 3.94564 6.4 4.3623C6.4 4.77897 6.546 5.13297 6.838 5.4243C7.12933 5.7163 7.48333 5.8623 7.9 5.8623Z" fill="#F35C12"/>
</svg>
