<svg width="19" height="19" viewBox="0 0 19 19" fill="none" xmlns="http://www.w3.org/2000/svg">
<path d="M5.98906 9.39478L7.46406 7.91978C7.66406 7.71978 7.76406 7.48644 7.76406 7.21978C7.76406 6.95311 7.66406 6.71978 7.46406 6.51978C7.26406 6.31978 7.02673 6.21978 6.75206 6.21978C6.4774 6.21978 6.23973 6.31978 6.03906 6.51978L3.86406 8.69478C3.76406 8.79478 3.69306 8.90311 3.65106 9.01978C3.60906 9.13644 3.5884 9.26144 3.58906 9.39478C3.58906 9.52811 3.60973 9.65311 3.65106 9.76978C3.6924 9.88644 3.7634 9.99477 3.86406 10.0948L6.03906 12.2698C6.23906 12.4698 6.47673 12.5698 6.75206 12.5698C7.0274 12.5698 7.26473 12.4698 7.46406 12.2698C7.66406 12.0698 7.76406 11.8364 7.76406 11.5698C7.76406 11.3031 7.66406 11.0698 7.46406 10.8698L5.98906 9.39478ZM12.3391 9.39478L10.8641 10.8698C10.6641 11.0698 10.5641 11.3031 10.5641 11.5698C10.5641 11.8364 10.6641 12.0698 10.8641 12.2698C11.0641 12.4698 11.3017 12.5698 11.5771 12.5698C11.8524 12.5698 12.0897 12.4698 12.2891 12.2698L14.4641 10.0948C14.5641 9.99477 14.6351 9.88644 14.6771 9.76978C14.7191 9.65311 14.7397 9.52811 14.7391 9.39478C14.7391 9.26144 14.7184 9.13644 14.6771 9.01978C14.6357 8.90311 14.5647 8.79478 14.4641 8.69478L12.2891 6.51978C12.1891 6.41978 12.0767 6.34478 11.9521 6.29478C11.8274 6.24477 11.7021 6.21978 11.5761 6.21978C11.4514 6.21978 11.3264 6.24477 11.2011 6.29478C11.0757 6.34478 10.9634 6.41978 10.8641 6.51978C10.6641 6.71978 10.5641 6.95311 10.5641 7.21978C10.5641 7.48644 10.6641 7.71978 10.8641 7.91978L12.3391 9.39478ZM2.16406 18.3948C1.61406 18.3948 1.1434 18.1991 0.752063 17.8078C0.360729 17.4164 0.164729 16.9454 0.164062 16.3948V2.39478C0.164062 1.84478 0.360063 1.37411 0.752063 0.982775C1.14406 0.591442 1.61473 0.395442 2.16406 0.394775H16.1641C16.7141 0.394775 17.1851 0.590775 17.5771 0.982775C17.9691 1.37478 18.1647 1.84544 18.1641 2.39478V16.3948C18.1641 16.9448 17.9684 17.4158 17.5771 17.8078C17.1857 18.1998 16.7147 18.3954 16.1641 18.3948H2.16406ZM2.16406 16.3948H16.1641V2.39478H2.16406V16.3948Z" fill="#FF67DE"/>
</svg>
