<svg width="25" height="25" viewBox="0 0 25 25" fill="none" xmlns="http://www.w3.org/2000/svg">
<g id="Frame">
<path id="Vector" d="M9.38848 12.6936L10.8635 11.2186C11.0635 11.0186 11.1635 10.7853 11.1635 10.5186C11.1635 10.252 11.0635 10.0186 10.8635 9.81863C10.6635 9.61863 10.4261 9.51863 10.1515 9.51863C9.87681 9.51863 9.63914 9.61863 9.43848 9.81863L7.26348 11.9936C7.16348 12.0936 7.09248 12.202 7.05048 12.3186C7.00848 12.4353 6.98781 12.5603 6.98848 12.6936C6.98848 12.827 7.00914 12.952 7.05048 13.0686C7.09181 13.1853 7.16281 13.2936 7.26348 13.3936L9.43848 15.5686C9.63848 15.7686 9.87614 15.8686 10.1515 15.8686C10.4268 15.8686 10.6641 15.7686 10.8635 15.5686C11.0635 15.3686 11.1635 15.1353 11.1635 14.8686C11.1635 14.602 11.0635 14.3686 10.8635 14.1686L9.38848 12.6936ZM15.7385 12.6936L14.2635 14.1686C14.0635 14.3686 13.9635 14.602 13.9635 14.8686C13.9635 15.1353 14.0635 15.3686 14.2635 15.5686C14.4635 15.7686 14.7011 15.8686 14.9765 15.8686C15.2518 15.8686 15.4891 15.7686 15.6885 15.5686L17.8635 13.3936C17.9635 13.2936 18.0345 13.1853 18.0765 13.0686C18.1185 12.952 18.1391 12.827 18.1385 12.6936C18.1385 12.5603 18.1178 12.4353 18.0765 12.3186C18.0351 12.202 17.9641 12.0936 17.8635 11.9936L15.6885 9.81863C15.5885 9.71863 15.4761 9.64363 15.3515 9.59363C15.2268 9.54363 15.1015 9.51863 14.9755 9.51863C14.8508 9.51863 14.7258 9.54363 14.6005 9.59363C14.4751 9.64363 14.3628 9.71863 14.2635 9.81863C14.0635 10.0186 13.9635 10.252 13.9635 10.5186C13.9635 10.7853 14.0635 11.0186 14.2635 11.2186L15.7385 12.6936ZM5.56348 21.6936C5.01348 21.6936 4.54281 21.498 4.15148 21.1066C3.76014 20.7153 3.56414 20.2443 3.56348 19.6936V5.69363C3.56348 5.14363 3.75948 4.67297 4.15148 4.28163C4.54348 3.8903 5.01414 3.6943 5.56348 3.69363H19.5635C20.1135 3.69363 20.5845 3.88963 20.9765 4.28163C21.3685 4.67363 21.5641 5.1443 21.5635 5.69363V19.6936C21.5635 20.2436 21.3678 20.7146 20.9765 21.1066C20.5851 21.4986 20.1141 21.6943 19.5635 21.6936H5.56348ZM5.56348 19.6936H19.5635V5.69363H5.56348V19.6936Z" fill="white"/>
</g>
</svg>
