<svg width="25" height="25" viewBox="0 0 25 25" fill="none" xmlns="http://www.w3.org/2000/svg">
<g id="Frame">
<path id="Vector" d="M4.65235 20.7757C4.10235 20.7757 3.63135 20.5797 3.23935 20.1877C2.84735 19.7957 2.65168 19.325 2.65235 18.7757V6.77567C2.65235 6.22567 2.84835 5.75467 3.24035 5.36267C3.63235 4.97067 4.10301 4.775 4.65235 4.77567H20.6523C21.2023 4.77567 21.6733 4.97167 22.0653 5.36367C22.4573 5.75567 22.653 6.22633 22.6523 6.77567V11.8007C22.6523 12.084 22.5563 12.3217 22.3643 12.5137C22.1723 12.7057 21.935 12.8013 21.6523 12.8007C21.369 12.8007 21.1313 12.7047 20.9393 12.5127C20.7473 12.3207 20.6517 12.0837 20.6523 11.8017V6.77567H4.65235V18.7757H13.6773C13.9607 18.7757 14.1983 18.8717 14.3903 19.0637C14.5823 19.2557 14.678 19.493 14.6773 19.7757C14.6773 20.059 14.5813 20.2967 14.3893 20.4887C14.1973 20.6807 13.96 20.7763 13.6773 20.7757H4.65235ZM19.0523 19.3757L17.6523 18.7257C17.4523 18.6423 17.3523 18.4923 17.3523 18.2757C17.3523 18.059 17.4523 17.909 17.6523 17.8257L19.0523 17.1757L19.7023 15.7757C19.7857 15.5757 19.9357 15.4757 20.1523 15.4757C20.369 15.4757 20.519 15.5757 20.6023 15.7757L21.2523 17.1757L22.6523 17.8257C22.8523 17.909 22.9523 18.059 22.9523 18.2757C22.9523 18.4923 22.8523 18.6423 22.6523 18.7257L21.2523 19.3757L20.6023 20.7757C20.519 20.9757 20.369 21.0757 20.1523 21.0757C19.9357 21.0757 19.7857 20.9757 19.7023 20.7757L19.0523 19.3757ZM11.4023 14.0257L12.2023 15.7757C12.2857 15.9757 12.4357 16.0757 12.6523 16.0757C12.869 16.0757 13.019 15.9757 13.1023 15.7757L13.9023 14.0257L15.6523 13.2257C15.8523 13.1423 15.9523 12.9923 15.9523 12.7757C15.9523 12.559 15.8523 12.409 15.6523 12.3257L13.9023 11.5257L13.1023 9.77567C13.019 9.57567 12.869 9.47567 12.6523 9.47567C12.4357 9.47567 12.2857 9.57567 12.2023 9.77567L11.4023 11.5257L9.65235 12.3257C9.45235 12.409 9.35235 12.559 9.35235 12.7757C9.35235 12.9923 9.45235 13.1423 9.65235 13.2257L11.4023 14.0257Z" fill="white"/>
</g>
</svg>
