<svg width="21" height="18" viewBox="0 0 21 18" fill="none" xmlns="http://www.w3.org/2000/svg">
<path d="M2.16406 16.8096C1.61406 16.8096 1.14306 16.6136 0.751064 16.2216C0.359064 15.8296 0.163398 15.3589 0.164064 14.8096V2.80957C0.164064 2.25957 0.360064 1.78857 0.752064 1.39657C1.14406 1.00457 1.61473 0.808905 2.16406 0.809572H18.1641C18.7141 0.809572 19.1851 1.00557 19.5771 1.39757C19.9691 1.78957 20.1647 2.26024 20.1641 2.80957V7.83457C20.1641 8.11791 20.0681 8.35557 19.8761 8.54757C19.6841 8.73957 19.4467 8.83524 19.1641 8.83457C18.8807 8.83457 18.6431 8.73857 18.4511 8.54657C18.2591 8.35457 18.1634 8.11757 18.1641 7.83557V2.80957H2.16406V14.8096H11.1891C11.4724 14.8096 11.7101 14.9056 11.9021 15.0976C12.0941 15.2896 12.1897 15.5269 12.1891 15.8096C12.1891 16.0929 12.0931 16.3306 11.9011 16.5226C11.7091 16.7146 11.4717 16.8102 11.1891 16.8096H2.16406ZM16.5641 15.4096L15.1641 14.7596C14.9641 14.6762 14.8641 14.5262 14.8641 14.3096C14.8641 14.0929 14.9641 13.9429 15.1641 13.8596L16.5641 13.2096L17.2141 11.8096C17.2974 11.6096 17.4474 11.5096 17.6641 11.5096C17.8807 11.5096 18.0307 11.6096 18.1141 11.8096L18.7641 13.2096L20.1641 13.8596C20.3641 13.9429 20.4641 14.0929 20.4641 14.3096C20.4641 14.5262 20.3641 14.6762 20.1641 14.7596L18.7641 15.4096L18.1141 16.8096C18.0307 17.0096 17.8807 17.1096 17.6641 17.1096C17.4474 17.1096 17.2974 17.0096 17.2141 16.8096L16.5641 15.4096ZM8.91406 10.0596L9.71406 11.8096C9.7974 12.0096 9.9474 12.1096 10.1641 12.1096C10.3807 12.1096 10.5307 12.0096 10.6141 11.8096L11.4141 10.0596L13.1641 9.25957C13.3641 9.17624 13.4641 9.02624 13.4641 8.80957C13.4641 8.59291 13.3641 8.44291 13.1641 8.35957L11.4141 7.55957L10.6141 5.80957C10.5307 5.60957 10.3807 5.50957 10.1641 5.50957C9.9474 5.50957 9.7974 5.60957 9.71406 5.80957L8.91406 7.55957L7.16406 8.35957C6.96406 8.44291 6.86406 8.59291 6.86406 8.80957C6.86406 9.02624 6.96406 9.17624 7.16406 9.25957L8.91406 10.0596Z" fill="#59D499"/>
</svg>
