<svg width="25" height="25" viewBox="0 0 25 25" fill="none" xmlns="http://www.w3.org/2000/svg">
<g id="Frame">
<path id="Vector" d="M6.7417 19.4916H9.7417V14.4916C9.7417 14.2082 9.8377 13.9709 10.0297 13.7796C10.2217 13.5882 10.459 13.4922 10.7417 13.4916H14.7417C15.025 13.4916 15.2627 13.5876 15.4547 13.7796C15.6467 13.9716 15.7424 14.2089 15.7417 14.4916V19.4916H18.7417V10.4916L12.7417 5.99158L6.7417 10.4916V19.4916ZM4.7417 19.4916V10.4916C4.7417 10.1749 4.8127 9.87491 4.9547 9.59158C5.0967 9.30824 5.29237 9.07491 5.5417 8.89158L11.5417 4.39158C11.8917 4.12491 12.2917 3.99158 12.7417 3.99158C13.1917 3.99158 13.5917 4.12491 13.9417 4.39158L19.9417 8.89158C20.1917 9.07491 20.3877 9.30824 20.5297 9.59158C20.6717 9.87491 20.7424 10.1749 20.7417 10.4916V19.4916C20.7417 20.0416 20.5457 20.5126 20.1537 20.9046C19.7617 21.2966 19.291 21.4922 18.7417 21.4916H14.7417C14.4584 21.4916 14.221 21.3956 14.0297 21.2036C13.8384 21.0116 13.7424 20.7742 13.7417 20.4916V15.4916H11.7417V20.4916C11.7417 20.7749 11.6457 21.0126 11.4537 21.2046C11.2617 21.3966 11.0244 21.4922 10.7417 21.4916H6.7417C6.1917 21.4916 5.72103 21.2959 5.3297 20.9046C4.93837 20.5132 4.74237 20.0422 4.7417 19.4916Z" fill="white"/>
</g>
</svg>
