<svg width="19" height="22" viewBox="0 0 19 22" fill="none" xmlns="http://www.w3.org/2000/svg">
<path d="M2.32306 18.8865H5.80766V13.0627C5.80766 12.7327 5.91917 12.4563 6.14218 12.2334C6.3652 12.0105 6.64087 11.8987 6.96919 11.8979H11.6153C11.9444 11.8979 12.2205 12.0098 12.4435 12.2334C12.6665 12.457 12.7776 12.7335 12.7769 13.0627V18.8865H16.2614V8.40368L9.29226 3.16228L2.32306 8.40368V18.8865ZM0 18.8865V8.40368C0 8.03484 0.0824686 7.68541 0.247406 7.3554C0.412344 7.02538 0.639617 6.75361 0.929226 6.54007L7.89842 1.29867C8.30495 0.988065 8.76957 0.832764 9.29226 0.832764C9.81495 0.832764 10.2796 0.988065 10.6861 1.29867L17.6553 6.54007C17.9457 6.75361 18.1733 7.02538 18.3383 7.3554C18.5032 7.68541 18.5853 8.03484 18.5845 8.40368V18.8865C18.5845 19.5271 18.3569 20.0757 17.9015 20.5323C17.4462 20.9889 16.8995 21.2168 16.2614 21.216H11.6153C11.2862 21.216 11.0105 21.1042 10.7883 20.8805C10.5661 20.6569 10.4546 20.3805 10.4538 20.0512V14.2275H8.13072V20.0512C8.13072 20.3813 8.01922 20.6581 7.7962 20.8817C7.57319 21.1053 7.29752 21.2168 6.96919 21.216H2.32306C1.68422 21.216 1.13753 20.9881 0.682981 20.5323C0.228434 20.0765 0.000774355 19.5279 0 18.8865Z" fill="#E64149"/>
</svg>
