<svg width="70" height="70" viewBox="0 0 70 70" fill="none" xmlns="http://www.w3.org/2000/svg">
<path d="M8.6405 0.950439C4.36803 0.950439 0.828003 4.49047 0.828003 8.76294V61.8879C0.828003 66.1604 4.36803 69.7004 8.6405 69.7004H61.7655C66.038 69.7004 69.578 66.1604 69.578 61.8879V8.76294C69.578 4.49047 66.038 0.950439 61.7655 0.950439H8.6405ZM8.6405 7.20044H61.7655C62.6566 7.20044 63.328 7.87181 63.328 8.76294V61.8879C63.328 62.7791 62.6566 63.4504 61.7655 63.4504H8.6405C7.74938 63.4504 7.078 62.7791 7.078 61.8879V8.76294C7.078 7.87181 7.74938 7.20044 8.6405 7.20044ZM17.8202 12.5715C14.8539 12.5715 12.4491 14.9763 12.4491 17.9426C12.4491 20.9089 14.8539 23.3137 17.8202 23.3137C20.7865 23.3137 23.1913 20.9089 23.1913 17.9426C23.1913 14.9763 20.7865 12.5715 17.8202 12.5715ZM46.0428 26.8293C41.5629 26.8293 38.5843 29.283 37.3514 31.6145H37.1561V27.5129H28.3671V57.2004H37.5468V42.552C37.5468 38.6824 38.3158 34.9348 43.1132 34.9348C47.8373 34.9348 47.8983 39.3049 47.8983 42.7473V57.2004H57.078V40.8918C57.078 32.9084 55.3812 26.8293 46.0428 26.8293ZM13.328 27.5129V57.2004H22.6053V27.5129H13.328Z" fill="#0158D1"/>
</svg>
