<svg width="70" height="70" viewBox="0 0 70 70" fill="none" xmlns="http://www.w3.org/2000/svg">
<path d="M8.64679 0.950439C4.37432 0.950439 0.83429 4.49047 0.83429 8.76294V61.8879C0.83429 66.1604 4.37432 69.7004 8.64679 69.7004H61.7718C66.0443 69.7004 69.5843 66.1604 69.5843 61.8879V8.76294C69.5843 4.49047 66.0443 0.950439 61.7718 0.950439H8.64679ZM8.64679 7.20044H61.7718C62.6629 7.20044 63.3343 7.87181 63.3343 8.76294V61.8879C63.3343 62.7791 62.6629 63.4504 61.7718 63.4504H8.64679C7.75566 63.4504 7.08429 62.7791 7.08429 61.8879V8.76294C7.08429 7.87181 7.75566 7.20044 8.64679 7.20044ZM17.8265 12.5715C14.8602 12.5715 12.4554 14.9763 12.4554 17.9426C12.4554 20.9089 14.8602 23.3137 17.8265 23.3137C20.7928 23.3137 23.1976 20.9089 23.1976 17.9426C23.1976 14.9763 20.7928 12.5715 17.8265 12.5715ZM46.0491 26.8293C41.5692 26.8293 38.5906 29.283 37.3577 31.6145H37.1624V27.5129H28.3734V57.2004H37.553V42.552C37.553 38.6824 38.3221 34.9348 43.1194 34.9348C47.8436 34.9348 47.9046 39.3049 47.9046 42.7473V57.2004H57.0843V40.8918C57.0843 32.9084 55.3875 26.8293 46.0491 26.8293ZM13.3343 27.5129V57.2004H22.6116V27.5129H13.3343Z" fill="white"/>
</svg>
