<svg width="25" height="25" viewBox="0 0 25 25" fill="none" xmlns="http://www.w3.org/2000/svg">
<g id="Frame">
<path id="Vector" d="M12.1082 18.8715C13.4915 18.8715 14.6708 18.3841 15.6462 17.4095C16.6208 16.4341 17.1082 15.2548 17.1082 13.8715C17.1082 12.4881 16.6208 11.3088 15.6462 10.3335C14.6708 9.35879 13.4915 8.87146 12.1082 8.87146C10.7248 8.87146 9.54582 9.35879 8.57115 10.3335C7.59582 11.3088 7.10815 12.4881 7.10815 13.8715C7.10815 15.2548 7.59582 16.4341 8.57115 17.4095C9.54582 18.3841 10.7248 18.8715 12.1082 18.8715ZM12.1082 16.8715C11.2748 16.8715 10.5665 16.5798 9.98315 15.9965C9.39982 15.4131 9.10815 14.7048 9.10815 13.8715C9.10815 13.0381 9.39982 12.3298 9.98315 11.7465C10.5665 11.1631 11.2748 10.8715 12.1082 10.8715C12.9415 10.8715 13.6498 11.1631 14.2332 11.7465C14.8165 12.3298 15.1082 13.0381 15.1082 13.8715C15.1082 14.7048 14.8165 15.4131 14.2332 15.9965C13.6498 16.5798 12.9415 16.8715 12.1082 16.8715ZM18.1082 10.8715C18.3915 10.8715 18.6288 10.7755 18.8202 10.5835C19.0122 10.3921 19.1082 10.1548 19.1082 9.87146C19.1082 9.58813 19.0122 9.35046 18.8202 9.15846C18.6288 8.96713 18.3915 8.87146 18.1082 8.87146C17.8248 8.87146 17.5875 8.96713 17.3962 9.15846C17.2042 9.35046 17.1082 9.58813 17.1082 9.87146C17.1082 10.1548 17.2042 10.3921 17.3962 10.5835C17.5875 10.7755 17.8248 10.8715 18.1082 10.8715ZM4.10815 21.8715C3.55815 21.8715 3.08749 21.6758 2.69615 21.2845C2.30415 20.8925 2.10815 20.4215 2.10815 19.8715V7.87146C2.10815 7.32146 2.30415 6.85079 2.69615 6.45946C3.08749 6.06746 3.55815 5.87146 4.10815 5.87146H7.25815L8.80815 4.19646C8.90815 4.09646 9.02049 4.01713 9.14515 3.95846C9.27049 3.90046 9.39982 3.87146 9.53315 3.87146H14.6832C14.8165 3.87146 14.9458 3.90046 15.0712 3.95846C15.1958 4.01713 15.3082 4.09646 15.4082 4.19646L16.9582 5.87146H20.1082C20.6582 5.87146 21.1292 6.06746 21.5212 6.45946C21.9125 6.85079 22.1082 7.32146 22.1082 7.87146V19.8715C22.1082 20.4215 21.9125 20.8925 21.5212 21.2845C21.1292 21.6758 20.6582 21.8715 20.1082 21.8715H4.10815ZM20.1082 19.8715V7.87146H16.0582L14.2332 5.87146H9.98315L8.15815 7.87146H4.10815V19.8715H20.1082Z" fill="white"/>
</g>
</svg>
