<svg width="20" height="19" viewBox="0 0 20 19" fill="none" xmlns="http://www.w3.org/2000/svg">
<path d="M10 15.1188C11.3833 15.1188 12.5627 14.6315 13.538 13.6568C14.5127 12.6815 15 11.5022 15 10.1188C15 8.7355 14.5127 7.55617 13.538 6.58084C12.5627 5.60617 11.3833 5.11884 10 5.11884C8.61667 5.11884 7.43767 5.60617 6.463 6.58084C5.48767 7.55617 5 8.7355 5 10.1188C5 11.5022 5.48767 12.6815 6.463 13.6568C7.43767 14.6315 8.61667 15.1188 10 15.1188ZM10 13.1188C9.16667 13.1188 8.45833 12.8272 7.875 12.2438C7.29167 11.6605 7 10.9522 7 10.1188C7 9.2855 7.29167 8.57717 7.875 7.99384C8.45833 7.4105 9.16667 7.11884 10 7.11884C10.8333 7.11884 11.5417 7.4105 12.125 7.99384C12.7083 8.57717 13 9.2855 13 10.1188C13 10.9522 12.7083 11.6605 12.125 12.2438C11.5417 12.8272 10.8333 13.1188 10 13.1188ZM16 7.11884C16.2833 7.11884 16.5207 7.02284 16.712 6.83084C16.904 6.6395 17 6.40217 17 6.11884C17 5.8355 16.904 5.59784 16.712 5.40584C16.5207 5.2145 16.2833 5.11884 16 5.11884C15.7167 5.11884 15.4793 5.2145 15.288 5.40584C15.096 5.59784 15 5.8355 15 6.11884C15 6.40217 15.096 6.6395 15.288 6.83084C15.4793 7.02284 15.7167 7.11884 16 7.11884ZM2 18.1188C1.45 18.1188 0.979333 17.9232 0.588 17.5318C0.196 17.1398 0 16.6688 0 16.1188V4.11884C0 3.56884 0.196 3.09817 0.588 2.70684C0.979333 2.31484 1.45 2.11884 2 2.11884H5.15L6.7 0.443835C6.8 0.343836 6.91233 0.264502 7.037 0.205835C7.16233 0.147835 7.29167 0.118835 7.425 0.118835H12.575C12.7083 0.118835 12.8377 0.147835 12.963 0.205835C13.0877 0.264502 13.2 0.343836 13.3 0.443835L14.85 2.11884H18C18.55 2.11884 19.021 2.31484 19.413 2.70684C19.8043 3.09817 20 3.56884 20 4.11884V16.1188C20 16.6688 19.8043 17.1398 19.413 17.5318C19.021 17.9232 18.55 18.1188 18 18.1188H2ZM18 16.1188V4.11884H13.95L12.125 2.11884H7.875L6.05 4.11884H2V16.1188H18Z" fill="#FDD60B"/>
</svg>
