<svg width="19" height="19" viewBox="0 0 19 19" fill="none" xmlns="http://www.w3.org/2000/svg">
<path d="M8.74854 18.1837H2.74854C2.19854 18.1837 1.72787 17.988 1.33654 17.5967C0.945202 17.2053 0.749202 16.7343 0.748535 16.1837V2.18365C0.748535 1.63365 0.944535 1.16299 1.33654 0.771655C1.72854 0.380322 2.1992 0.184321 2.74854 0.183655H8.74854V18.1837ZM6.74854 16.1837V2.18365H2.74854V16.1837H6.74854ZM10.7485 8.18365V0.183655H16.7485C17.2985 0.183655 17.7695 0.379655 18.1615 0.771655C18.5535 1.16365 18.7492 1.63432 18.7485 2.18365V8.18365H10.7485ZM12.7485 6.18365H16.7485V2.18365H12.7485V6.18365ZM10.7485 18.1837V10.1837H18.7485V16.1837C18.7485 16.7337 18.5529 17.2047 18.1615 17.5967C17.7702 17.9887 17.2992 18.1843 16.7485 18.1837H10.7485ZM12.7485 16.1837H16.7485V12.1837H12.7485V16.1837Z" fill="#7C55DF"/>
</svg>
