<svg width="25" height="25" viewBox="0 0 25 25" fill="none" xmlns="http://www.w3.org/2000/svg">
<g id="Frame">
<path id="Vector" d="M11.3569 21.3701H5.35693C4.80693 21.3701 4.33627 21.1744 3.94493 20.7831C3.5536 20.3918 3.3576 19.9208 3.35693 19.3701V5.37009C3.35693 4.82009 3.55293 4.34942 3.94493 3.95809C4.33693 3.56675 4.8076 3.37075 5.35693 3.37009H11.3569V21.3701ZM9.35693 19.3701V5.37009H5.35693V19.3701H9.35693ZM13.3569 11.3701V3.37009H19.3569C19.9069 3.37009 20.3779 3.56609 20.7699 3.95809C21.1619 4.35009 21.3576 4.82075 21.3569 5.37009V11.3701H13.3569ZM15.3569 9.37009H19.3569V5.37009H15.3569V9.37009ZM13.3569 21.3701V13.3701H21.3569V19.3701C21.3569 19.9201 21.1613 20.3911 20.7699 20.7831C20.3786 21.1751 19.9076 21.3708 19.3569 21.3701H13.3569ZM15.3569 19.3701H19.3569V15.3701H15.3569V19.3701Z" fill="white"/>
</g>
</svg>
