<svg width="31" height="31" viewBox="0 0 31 31" fill="none" xmlns="http://www.w3.org/2000/svg">
<g clip-path="url(#clip0_249_590)">
<path d="M4.85081 26.1412C5.32531 26.6127 6.11163 26.6127 6.57257 26.1412L15.2492 17.2678L23.9258 26.1412C24.3868 26.6127 25.1866 26.6265 25.6476 26.1412C26.1085 25.656 26.1085 24.8657 25.6476 24.3944L16.971 15.507L25.6476 6.63347C26.1085 6.16207 26.1221 5.35791 25.6476 4.8865C25.1731 4.40123 24.3868 4.40123 23.9258 4.8865L15.2492 13.76L6.57257 4.8865C6.11163 4.40123 5.31176 4.38737 4.85081 4.8865C4.38987 5.37177 4.38987 6.16207 4.85081 6.63347L13.5274 15.507L4.85081 24.3944C4.38987 24.8657 4.37631 25.6699 4.85081 26.1412Z" fill="white" fill-opacity="0.85"/>
</g>
<defs>
<clipPath id="clip0_249_590">
<rect width="22" height="22" fill="white" transform="translate(4.5 4.5)"/>
</clipPath>
</defs>
</svg>
