<svg width="24" height="17" viewBox="0 0 24 17" fill="none" xmlns="http://www.w3.org/2000/svg">
<g clip-path="url(#clip0_245_577)">
<path d="M11.7773 9.51172C12.0996 9.51172 12.4121 9.38477 12.7148 9.11133L22.4707 0.517578C21.9434 0.166016 21.3379 0.00976562 20.498 0.00976562H3.06641C2.22656 0.00976562 1.62109 0.166016 1.08398 0.517578L10.8398 9.11133C11.1523 9.38477 11.4648 9.51172 11.7773 9.51172ZM0.253906 15.2637L7.48047 8.04688L0.234375 1.66016C0.126953 1.86523 0 2.36328 0 3.03711V13.8184C0 14.4434 0.0976562 14.8926 0.253906 15.2637ZM2.77344 16.8457H20.791C21.5039 16.8457 22.0605 16.6699 22.4316 16.416L15 8.98438L13.5742 10.2539C13.0078 10.752 12.3926 11.0059 11.7773 11.0059C11.1719 11.0059 10.5566 10.752 9.99023 10.2539L8.56445 8.98438L1.13281 16.416C1.50391 16.6699 2.05078 16.8457 2.77344 16.8457ZM23.3105 15.2637C23.457 14.8926 23.5645 14.4434 23.5645 13.8184V3.03711C23.5645 2.36328 23.4375 1.86523 23.3301 1.66016L16.084 8.04688L23.3105 15.2637Z" fill="white" fill-opacity="0.85"/>
</g>
<defs>
<clipPath id="clip0_245_577">
<rect width="23.9258" height="16.8457" fill="white"/>
</clipPath>
</defs>
</svg>
