<svg width="21" height="19" viewBox="0 0 21 19" fill="none" xmlns="http://www.w3.org/2000/svg">
<g clip-path="url(#clip0_244_545)">
<path d="M0.833401 7.47635C-0.514255 8.10135 -0.143161 9.90799 1.34121 9.91775L8.46035 9.94705C8.57754 9.94705 8.60684 9.97635 8.60684 10.0936L8.62637 17.1541C8.63614 18.6971 10.4721 18.9705 11.1264 17.5545L18.3432 2.03689C19.0072 0.59158 17.8744 -0.433811 16.4389 0.240017L0.833401 7.47635ZM2.53262 8.39432C2.49356 8.39432 2.48379 8.35525 2.53262 8.33572L16.5658 1.90994C16.6342 1.88064 16.6635 1.90018 16.6342 1.9783L10.1693 16.0018C10.1596 16.0408 10.1205 16.0311 10.1205 15.992L10.1693 9.08768C10.1693 8.65799 9.8666 8.35525 9.42715 8.35525L2.53262 8.39432Z" fill="white" fill-opacity="0.85"/>
</g>
<defs>
<clipPath id="clip0_244_545">
<rect width="20.2703" height="18.4783" fill="white"/>
</clipPath>
</defs>
</svg>
