<svg width="31" height="31" viewBox="0 0 31 31" fill="none" xmlns="http://www.w3.org/2000/svg">
<path d="M24.5963 4.58276C25.2838 4.58276 25.8721 4.82735 26.3613 5.31651C26.8505 5.80568 27.0955 6.39443 27.0963 7.08276L27.0963 12.0828L24.5963 12.0828L24.5963 7.08276L7.09632 7.08276L7.09631 24.5828L24.5963 24.5828L24.5963 19.5828L27.0963 19.5828L27.0963 24.5828C27.0963 25.2703 26.8513 25.8586 26.3613 26.3478C25.8713 26.8369 25.283 27.0819 24.5963 27.0828L7.09631 27.0828C6.40881 27.0828 5.82006 26.8378 5.33006 26.3478C4.84006 25.8578 4.59548 25.2694 4.59631 24.5828L4.59632 7.08276C4.59632 6.39526 4.8409 5.80651 5.33006 5.31651C5.81923 4.82651 6.40798 4.58193 7.09632 4.58276L24.5963 4.58276ZM17.7213 9.58276L19.4713 11.3953L16.2838 14.5828L27.0963 14.5828L27.0963 17.0828L16.2838 17.0828L19.4713 20.2703L17.7213 22.0828L11.4713 15.8328L17.7213 9.58276Z" fill="white"/>
</svg>
