<svg width="34" height="21" viewBox="0 0 34 21" fill="none" xmlns="http://www.w3.org/2000/svg">
<g clip-path="url(#clip0_250_613)">
<path d="M28.1641 4.58795V5.92736C27.6743 5.71293 27.1417 5.59522 26.5918 5.59433V4.67584C26.5918 3.66022 26.0352 3.13288 25.0684 3.13288H8.22266C7.24609 3.13288 6.69922 3.66022 6.69922 4.67584V16.4336C6.69922 17.4493 7.24609 17.9668 8.22266 17.9668H19.4008C19.3555 18.1842 19.3359 18.3995 19.3359 18.6114C19.3359 18.9505 19.4039 19.2624 19.5292 19.5391H8.19336C6.16211 19.5391 5.12695 18.5332 5.12695 16.5215V4.58795C5.12695 2.57624 6.16211 1.56061 8.19336 1.56061H25.0977C27.1387 1.56061 28.1641 2.57624 28.1641 4.58795Z" fill="white" fill-opacity="0.85"/>
<path d="M25.2539 5.34966V5.83088C23.6416 6.40634 22.4337 8.0077 22.4414 9.95904C22.4414 11.3394 23.0375 12.5601 23.9577 13.3655C22.0094 13.9822 20.5755 15.2559 19.8562 16.6387H8.89648C8.34961 16.6387 8.03711 16.3165 8.03711 15.7598V5.34966C8.03711 4.79302 8.34961 4.47076 8.89648 4.47076H24.3945C24.9414 4.47076 25.2539 4.79302 25.2539 5.34966Z" fill="white" fill-opacity="0.2125"/>
<path d="M26.582 13.045C28.0762 13.045 29.3848 11.6973 29.3848 9.93952C29.3848 8.211 28.0762 6.9317 26.582 6.9317C25.0781 6.9317 23.7695 8.23053 23.7695 9.95905C23.7695 11.6973 25.0781 13.045 26.582 13.045ZM21.8652 19.5391H31.2891C32.0215 19.5391 32.4805 19.1973 32.4805 18.6114C32.4805 16.795 30.2148 14.295 26.582 14.295C22.9297 14.295 20.6738 16.795 20.6738 18.6114C20.6738 19.1973 21.123 19.5391 21.8652 19.5391Z" fill="white" fill-opacity="0.85"/>
</g>
<defs>
<clipPath id="clip0_250_613">
<rect width="33.8086" height="20.6543" fill="white" transform="translate(0 0.222717)"/>
</clipPath>
</defs>
</svg>
