<svg width="20" height="15" viewBox="0 0 20 15" fill="none" xmlns="http://www.w3.org/2000/svg">
<g clip-path="url(#clip0_250_623)">
<path d="M18.823 7.40234C18.823 7.1582 18.7253 6.93359 18.53 6.74805L12.0554 0.292969C11.8405 0.078125 11.6355 0 11.4011 0C10.9226 0 10.5515 0.351562 10.5515 0.839844C10.5515 1.07422 10.6296 1.29883 10.7859 1.45508L12.9734 3.68164L16.8503 7.2168L17.0456 6.72852L13.9011 6.5332H1.54761C1.03979 6.5332 0.688232 6.89453 0.688232 7.40234C0.688232 7.91016 1.03979 8.27148 1.54761 8.27148H13.9011L17.0456 8.07617L16.8503 7.59766L12.9734 11.123L10.7859 13.3496C10.6296 13.4961 10.5515 13.7305 10.5515 13.9648C10.5515 14.4531 10.9226 14.8047 11.4011 14.8047C11.6355 14.8047 11.8405 14.7168 12.0359 14.5312L18.53 8.05664C18.7253 7.87109 18.823 7.64648 18.823 7.40234Z" fill="white" fill-opacity="0.85"/>
</g>
<defs>
<clipPath id="clip0_250_623">
<rect width="18.4961" height="14.8145" fill="white" transform="translate(0.688232)"/>
</clipPath>
</defs>
</svg>
