<svg width="35" height="25" viewBox="0 0 35 25" fill="none" xmlns="http://www.w3.org/2000/svg">
<g clip-path="url(#clip0_247_581)">
<path d="M16.5845 17.7126L16.5733 6.14936C16.5733 5.49419 16.1578 5.03442 15.4841 5.03442H4.18823C3.55943 5.03442 3.13275 5.52868 3.13275 6.0804C3.13275 6.63212 3.61558 7.10338 4.14332 7.10338H8.05083L13.5304 6.91948L11.4418 8.79304L0.314399 20.2068C0.112285 20.4137 0 20.678 0 20.931C0 21.4826 0.482826 21.9999 1.04425 21.9999C1.3025 21.9999 1.54954 21.9079 1.75165 21.6896L12.9015 10.2873L14.7542 8.13787L14.5521 13.5057V17.7585C14.5521 18.2987 15.0125 18.8045 15.5628 18.8045C16.1017 18.8045 16.5845 18.3332 16.5845 17.7126Z" fill="white" fill-opacity="0.85"/>
</g>
<defs>
<clipPath id="clip0_247_581">
<rect width="17" height="17" fill="white" transform="translate(0 5)"/>
</clipPath>
</defs>
</svg>
