<svg width="22" height="21" viewBox="0 0 22 21" fill="none" xmlns="http://www.w3.org/2000/svg">
<g clip-path="url(#clip0_244_553)">
<path d="M0 19.6289C0 20.0586 0.351562 20.4199 0.78125 20.4199H20.2148C20.6445 20.4199 21.0059 20.0586 21.0059 19.6289C21.0059 19.1992 20.6445 18.8477 20.2148 18.8477H0.78125C0.351562 18.8477 0 19.1992 0 19.6289ZM1.70898 8.44726C1.70898 8.84765 1.93359 9.07226 2.33398 9.07226H4.83398C5.23438 9.07226 5.46875 8.84765 5.46875 8.44726V8.21289C5.46875 7.83203 5.23438 7.59765 4.83398 7.59765H2.33398C1.93359 7.59765 1.70898 7.83203 1.70898 8.21289V8.44726ZM2.85156 16.7969H4.32617V8.54492H2.85156V16.7969ZM1.70898 17.3633C1.70898 17.7637 1.93359 17.9883 2.33398 17.9883H4.83398C5.23438 17.9883 5.46875 17.7637 5.46875 17.3633V17.1289C5.46875 16.7481 5.23438 16.5137 4.83398 16.5137H2.33398C1.93359 16.5137 1.70898 16.7481 1.70898 17.1289V17.3633ZM6.34766 8.44726C6.34766 8.84765 6.58203 9.07226 6.97266 9.07226H9.48242C9.87305 9.07226 10.1074 8.84765 10.1074 8.44726V8.21289C10.1074 7.83203 9.87305 7.59765 9.48242 7.59765H6.97266C6.58203 7.59765 6.34766 7.83203 6.34766 8.21289V8.44726ZM7.5 16.7969H8.97461V8.54492H7.5V16.7969ZM6.34766 17.3633C6.34766 17.7637 6.58203 17.9883 6.97266 17.9883H9.48242C9.87305 17.9883 10.1074 17.7637 10.1074 17.3633V17.1289C10.1074 16.7481 9.87305 16.5137 9.48242 16.5137H6.97266C6.58203 16.5137 6.34766 16.7481 6.34766 17.1289V17.3633ZM10.9961 8.44726C10.9961 8.84765 11.2305 9.07226 11.6211 9.07226H14.1309C14.5215 9.07226 14.7559 8.84765 14.7559 8.44726V8.21289C14.7559 7.83203 14.5215 7.59765 14.1309 7.59765H11.6211C11.2305 7.59765 10.9961 7.83203 10.9961 8.21289V8.44726ZM12.1484 16.7969H13.623V8.54492H12.1484V16.7969ZM10.9961 17.3633C10.9961 17.7637 11.2305 17.9883 11.6211 17.9883H14.1309C14.5215 17.9883 14.7559 17.7637 14.7559 17.3633V17.1289C14.7559 16.7481 14.5215 16.5137 14.1309 16.5137H11.6211C11.2305 16.5137 10.9961 16.7481 10.9961 17.1289V17.3633ZM15.6445 8.44726C15.6445 8.84765 15.8691 9.07226 16.2695 9.07226H18.7695C19.1699 9.07226 19.3945 8.84765 19.3945 8.44726V8.21289C19.3945 7.83203 19.1699 7.59765 18.7695 7.59765H16.2695C15.8691 7.59765 15.6445 7.83203 15.6445 8.21289V8.44726ZM16.7871 16.7969H18.2617V8.54492H16.7871V16.7969ZM15.6445 17.3633C15.6445 17.7637 15.8691 17.9883 16.2695 17.9883H18.7695C19.1699 17.9883 19.3945 17.7637 19.3945 17.3633V17.1289C19.3945 16.7481 19.1699 16.5137 18.7695 16.5137H16.2695C15.8691 16.5137 15.6445 16.7481 15.6445 17.1289V17.3633ZM1.28906 6.74804H19.707C20.2441 6.74804 20.5566 6.35742 20.5566 5.95703C20.5566 5.66406 20.4004 5.41015 20.0391 5.20507L11.6992 0.400391C11.3086 0.175782 10.8984 0.0585938 10.498 0.0585938C10.0977 0.0585938 9.6875 0.175782 9.29688 0.400391L0.957031 5.20507C0.595703 5.41015 0.439453 5.66406 0.439453 5.95703C0.439453 6.35742 0.742188 6.74804 1.28906 6.74804ZM4.21875 5.17578L10.1172 1.86523C10.2344 1.79687 10.3711 1.75781 10.498 1.75781C10.625 1.75781 10.7617 1.79687 10.8789 1.86523L16.7773 5.17578H4.21875Z" fill="white" fill-opacity="0.85"/>
</g>
<defs>
<clipPath id="clip0_244_553">
<rect width="21.3672" height="20.3613" fill="white" transform="translate(0 0.0585938)"/>
</clipPath>
</defs>
</svg>
